HIERARCHY
ROOT Hips
{
	OFFSET 0.000000 0.000000 0.000000 
	CHANNELS 6 Xposition Yposition Zposition Yrotation Zrotation Xrotation 
	JOINT Lumbar
	{
		OFFSET 0.000000 0.000000 0.000000 
		CHANNELS 3 Zrotation Xrotation Yrotation
		JOINT Neck
		{
			OFFSET 0.000000 0.445665 0.000000 
			CHANNELS 3 Zrotation Xrotation Yrotation
			End Site
			{
				OFFSET 0.000000 0.227535 0.000000 
			}
		}
		JOINT RightShoulder
		{
			OFFSET 0.019635 0.377685 0.194865 
			CHANNELS 3 Zrotation Xrotation Yrotation
			JOINT RightElbow
			{
				OFFSET 0.000000 -0.243375 0.000000 
				CHANNELS 2 Zrotation Yrotation
				JOINT RightWrist
				{
					OFFSET 0.000000 -0.264825 0.000000 
					CHANNELS 2 Zrotation Xrotation
					End Site
					{
						OFFSET 0.006600 -0.176220 0.000990 
					}
				}
			}
		}
		JOINT LeftShoulder
		{
			OFFSET 0.019635 0.377685 -0.194865 
			CHANNELS 3 Zrotation Xrotation Yrotation
			JOINT LeftElbow
			{
				OFFSET 0.000000 -0.243375 0.000000 
				CHANNELS 2 Zrotation Yrotation
				JOINT LeftWrist
				{
					OFFSET 0.000000 -0.264825 0.000000 
					CHANNELS 2 Zrotation Xrotation
					End Site
					{
						OFFSET 0.006600 -0.176220 -0.000990 
					}
				}
			}
		}
	}
	JOINT RightHip
	{
		OFFSET 0.052140 -0.069960 0.075570 
		CHANNELS 3 Zrotation Xrotation Yrotation
		JOINT RightKnee
		{
			OFFSET 0.000000 -0.402270 0.000000 
			CHANNELS 1 Zrotation
			JOINT RightAnkle
			{
				OFFSET 0.000000 -0.404085 0.000000 
				CHANNELS 3 Zrotation Xrotation Yrotation
				End Site
				{
					OFFSET 0.204105 -0.089430 0.008415 
				}
			}
		}
	}
	JOINT LeftHip
	{
		OFFSET 0.052140 -0.069960 -0.075570 
		CHANNELS 3 Zrotation Xrotation Yrotation
		JOINT LeftKnee
		{
			OFFSET 0.000000 -0.402270 0.000000 
			CHANNELS 1 Zrotation
			JOINT LeftAnkle
			{
				OFFSET 0.000000 -0.404085 0.000000 
				CHANNELS 3 Zrotation Xrotation Yrotation
				End Site
				{
					OFFSET 0.204105 -0.089430 -0.008415 
				}
			}
		}
	}
}
MOTION
Frames: 11
Frame Time: 0.02
0.05027 0.03204 1.71841 1066.14738 -31.00856 -0.53589 44.80667 0.15919 5.52489 -13.15563 2.66985 -2.11994 -23.20742 -5.86411 -5.72396 44.20166 76.9824 -6.63247 0.80529 -40.31689 1.9622 21.70947 40.11873 -78.26485 -5.05779 -1.38835 -1.27928 6.3885 18.55941 -1.242 -15.07518 -23.5021 -15.17937 48.66046 5.65573 2.16423 -27.72537 -7.49182 2.65977 3.57134
0.06944 0.03068 1.71759 1066.16877 -29.93952 -0.23493 44.22678 -0.10689 5.04675 -13.24491 2.6769 -2.11994 -23.9655 -5.79653 -6.931 43.76091 72.61433 -7.94256 1.70871 -39.0657 3.49073 18.48523 39.71992 -78.92392 -4.33266 -0.8402 0.94478 5.49227 15.15417 -8.38617 -15.70363 -20.39353 -13.55102 45.88423 5.29646 3.35708 -27.5938 -7.2709 2.59447 3.52852
0.08697 0.0284 1.71669 1066.32648 -28.5759 0.00773 43.24773 -0.36252 4.29637 -13.30467 2.69337 -2.11994 -24.50025 -5.64729 -8.5179 43.06616 67.26516 -9.5601 2.77027 -37.63527 5.34893 14.28606 39.13073 -79.76502 -3.38322 -0.15226 4.09967 4.69968 9.22001 -17.50424 -15.05239 -15.20619 -10.71451 42.80261 4.98855 4.76409 -27.36815 -7.04194 2.50352 3.47257
0.10517 0.02661 1.71589 1066.43359 -27.36176 0.25502 42.46101 -0.60815 3.6388 -13.38635 2.69987 -2.11994 -25.13494 -5.54778 -9.89236 42.49636 62.65861 -10.94831 3.70282 -36.26691 6.96114 10.80024 38.64126 -80.33907 -2.62925 0.40506 6.79575 3.88348 4.57777 -25.55068 -15.00402 -11.13165 -8.52106 39.88267 4.67483 6.02378 -27.1759 -6.82225 2.42576 3.42361
0.1237 0.0245 1.71483 1066.49382 -26.07571 0.59717 41.62892 -0.91629 3.11308 -13.43636 2.72933 -2.11994 -25.7885 -5.40074 -11.43328 41.88188 56.81506 -12.71101 4.87468 -34.96897 8.96914 6.20872 38.0988 -81.64214 -1.50057 1.23464 9.64524 2.96024 -0.68443 -34.36061 -14.90877 -6.32609 -5.92919 36.85114 4.28447 7.50258 -27.01731 -6.57717 2.34263 3.37073
0.14115 0.02285 1.7143 1066.68558 -24.87478 0.72671 40.79728 -1.09186 2.24845 -13.54261 2.71448 -2.11994 -26.34517 -5.32864 -12.72117 41.30179 53.28948 -13.77241 5.59034 -33.4894 10.24501 3.64584 37.62283 -81.52959 -1.07499 1.54406 12.39945 2.28717 -5.25484 -42.02871 -14.59101 -2.55146 -3.87765 33.98929 4.06896 8.57668 -26.76802 -6.38381 2.2637 3.32254
0.15609 0.02269 1.71521 1067.18329 -23.94468 0.28657 40.05182 -0.90163 0.50458 -13.82466 2.56422 -2.11994 -26.68665 -5.51399 -13.18118 40.8792 56.64739 -12.76945 4.9582 -31.51193 9.29223 7.29102 37.34667 -76.95433 -2.85099 0.26181 14.61184 2.28552 -7.22193 -46.18245 -13.96751 -2.20961 -3.65339 31.62114 4.29808 8.43112 -26.29709 -6.33383 2.20873 3.29325
0.16998 0.02303 1.71668 1067.81235 -23.11785 -0.36589 39.32286 -0.57902 -1.56836 -14.16129 2.371 -2.11994 -26.93714 -5.77158 -13.37941 40.50021 62.32806 -11.06004 3.87028 -29.36632 7.6134 12.94604 37.14815 -71.03965 -5.30578 -1.52852 16.70416 2.53236 -8.41368 -49.0918 -13.15893 -2.96671 -4.00799 29.44514 4.70553 7.87754 -25.73785 -6.33661 2.15783 3.26868
0.18429 0.02315 1.71792 1068.39686 -22.26759 -0.92429 38.59426 -0.31806 -3.48581 -14.46396 2.20462 -2.11994 -27.2288 -5.97554 -13.72174 40.10211 66.78638 -9.70807 3.02312 -27.32534 6.35126 17.43497 36.93418 -66.07734 -7.31251 -3.00372 18.88465 2.66246 -10.00845 -52.49199 -12.4317 -3.17394 -4.07231 27.215 5.04908 7.54266 -25.2163 -6.31647 2.1008 3.24007
0.19878 0.02319 1.71905 1068.92349 -21.30666 -1.47677 37.81798 -0.04917 -5.44228 -14.80485 2.00797 -2.11994 -27.51301 -6.26409 -13.97355 39.69358 71.9122 -8.21208 2.0398 -25.15941 4.73972 22.94228 36.63298 -59.68639 -9.89259 -4.81974 20.95827 2.81126 -11.48717 -56.28619 -11.67207 -3.52081 -4.20914 24.83343 5.32491 7.0785 -24.7021 -6.2918 2.06027 3.21873
0.21267 0.02352 1.72054 1069.59854 -20.60599 -2.08828 37.15089 0.23291 -7.38649 -15.0788 1.86369 -2.11994 -27.79483 -6.39517 -14.34389 39.3186 76.21486 -6.84569 1.22948 -23.21543 3.67262 26.83667 36.53056 -55.93062 -11.45279 -6.06076 23.21079 2.97985 -12.97894 -58.9264 -10.95274 -3.86531 -4.34834 22.81753 5.77987 6.77949 -24.15229 -6.28889 1.98755 3.1839
